
SVGOMG
Powered by SVGO v2.6.1

Open SVG
Paste markup
Demo
Contribute
About

514 bytes → 460 bytes 89.49%
<svg aria-hidden="true" style="position:absolute;width:0;height:0;overflow:hidden" xmlns="http://www.w3.org/2000/svg">
  <defs>
    <symbol id="bg-mob" viewBox="0 0 10 32">
      <path fill="#ffe550" style="fill:var(--color1, #ffe550)" d="M0 1.829c2.59-2.438 7.163-2.438 9.752 0V32H0V1.829z"/>
    </symbol>
    <symbol id="bg-desk" viewBox="0 0 48 32">
      <path fill="#ffe550" style="fill:var(--color1, #ffe550)" d="M0 6.183C17.29-4.521 37.981 17.858 47.85 0v32H0V6.183z"/>
    </symbol>
    <symbol id="bg-mob-2" viewBox="0 0 13 32">
      <path fill="#ffe550" style="fill:var(--color1, #ffe550)" d="M0 0h13.281v32C9.754 30.34 3.526 30.34 0 32V0z"/>
    </symbol>
    <symbol id="bg-desk-2" viewBox="0 0 63 32">
      <path fill="#ffe550" style="fill:var(--color1, #ffe550)" d="M0 29.091c22.434-11.646 49.737 17.005 62.63-7.022V0H0v29.091z"/>
    </symbol>
    <symbol id="bg-tab" viewBox="0 0 22 32">
      <path fill="#ffe550" style="fill:var(--color1, #ffe550)" d="M0 3.705C9.358-1.614 16.83 9.614 21.558 0v32H0V3.705z"/>
    </symbol>
    <symbol id="bg-tab-2" viewBox="0 0 44 32">
      <path fill="#ffe550" style="fill:var(--color1, #ffe550)" d="M0 30.417c15.89-6.339 35.229 9.255 44.361-3.822V0H0v30.417z"/>
    </symbol>

     <symbol id="rocket" viewBox="0 0 32 32">
      <path fill="#7eb101" style="fill:var(--color1, #7eb101)" d="m7.233 13.633 3.533 1.5c.4-.8.828-1.589 1.283-2.367s.939-1.522 1.45-2.233L10.866 10l-3.633 3.633zm5.134 2.7 4.433 4.433c1.267-.578 2.456-1.233 3.567-1.967s2.011-1.444 2.7-2.133c1.8-1.8 3.122-3.644 3.967-5.533s1.3-4.022 1.367-6.4c-2.378.067-4.511.522-6.4 1.367s-3.733 2.167-5.533 3.967c-.689.689-1.4 1.589-2.133 2.7s-1.389 2.3-1.967 3.567zm7.633-3.2c-.444-.444-.667-.995-.667-1.65s.222-1.206.667-1.65.994-.667 1.65-.667c.656 0 1.206.222 1.65.667s.667.994.667 1.65c0 .655-.222 1.206-.667 1.65s-.994.667-1.65.667-1.206-.222-1.65-.667zM19.5 25.9l3.633-3.633-.533-2.633c-.711.511-1.456.994-2.233 1.45S18.8 21.967 18 22.367l1.5 3.533zM30.367 2.767c.2 3.022-.178 5.778-1.133 8.267s-2.533 4.833-4.733 7.033l-.133.133.733 3.667c.067.333.05.656-.05.967s-.272.589-.517.833l-5.7 5.733-2.833-6.6-5.667-5.667-6.6-2.833 5.733-5.7c.244-.244.522-.417.833-.517s.633-.117.967-.05l3.667.733c.022-.022.044-.039.067-.05s.044-.028.067-.05c2.2-2.2 4.544-3.783 7.033-4.75s5.244-1.35 8.267-1.15zm-24.4 18.4c.778-.778 1.728-1.172 2.85-1.183s2.072.372 2.85 1.15c.778.778 1.161 1.728 1.15 2.85s-.406 2.072-1.183 2.85c-.578.578-1.472 1.055-2.683 1.433s-3.028.733-5.45 1.067c.333-2.422.683-4.244 1.05-5.467s.839-2.122 1.417-2.7zm1.4 1.433c-.311.333-.589.856-.833 1.567s-.456 1.622-.633 2.733c1.111-.178 2.022-.389 2.733-.633s1.233-.522 1.567-.833c.422-.378.639-.85.65-1.417s-.183-1.061-.583-1.483c-.422-.4-.917-.595-1.483-.583s-1.039.228-1.417.65z"/>
    </symbol>
    <symbol id="touch-app" viewBox="0 0 32 32">
      <path fill="#7eb101" style="fill:var(--color1, #7eb101)" d="M15.5 1.333c2.022 0 3.75.706 5.183 2.117s2.15 3.128 2.15 5.15c0 1.156-.25 2.244-.75 3.267s-1.206 1.889-2.117 2.6h-1.133V12.8c.644-.511 1.139-1.133 1.483-1.867s.517-1.511.517-2.333c0-1.467-.522-2.711-1.567-3.733s-2.3-1.533-3.767-1.533-2.722.511-3.767 1.533-1.567 2.267-1.567 3.733c0 .822.172 1.6.517 2.333s.839 1.356 1.483 1.867v2.4c-1.244-.645-2.222-1.556-2.933-2.733S8.165 10 8.165 8.6c0-2.022.717-3.739 2.15-5.15s3.161-2.117 5.183-2.117zm-1.266 28c-.378 0-.733-.072-1.067-.217s-.622-.339-.867-.583l-6.867-6.867L7.3 19.733c.311-.311.661-.55 1.05-.717s.794-.194 1.217-.083l2.6.6V8.666c0-.933.322-1.722.967-2.367s1.433-.967 2.367-.967c.933 0 1.722.322 2.367.967s.967 1.433.967 2.367v5.733h.867c.111 0 .211.022.3.067s.189.089.3.133l4.933 2.4c.533.244.928.639 1.183 1.183s.328 1.106.217 1.683l-1.2 7.267c-.111.645-.422 1.172-.933 1.583s-1.089.617-1.733.617h-8.533zm-.267-2h9.367l1.433-8.3-6.1-3.033h-1.833V8.667c0-.4-.122-.722-.367-.967s-.567-.367-.967-.367-.722.122-.967.367c-.245.244-.367.567-.367.967v13.3l-5.133-1.1-.767.767 5.7 5.7zm9.367 0z"/>
    </symbol>
    <symbol id="burger-menu" viewBox="0 0 32 32">
      <path fill="#7eb101" style="fill:var(--color1, #7eb101)" d="M2.666 8A1.335 1.335 0 0 1 4 6.666h24A1.33 1.33 0 0 1 29.333 8 1.333 1.333 0 0 1 28 9.334H4A1.335 1.335 0 0 1 2.666 8zm0 8.043A1.33 1.33 0 0 1 4 14.71h24a1.333 1.333 0 1 1 0 2.666H4a1.333 1.333 0 0 1-1.334-1.333zM4 22.752a1.337 1.337 0 0 0-1.334 1.333A1.33 1.33 0 0 0 4 25.418h24a1.333 1.333 0 1 0 0-2.666H4z"/>
    </symbol>


     <symbol id="input" viewBox="0 0 32 32">
      <path stroke-linejoin="round" stroke-linecap="round" stroke-width="2.286" d="M16 11.429v6.857M16.002 26.286a1.143 1.143 0 1 0 0-2.287 1.143 1.143 0 0 0 0 2.287z"/>
      <path stroke-linejoin="round" stroke-linecap="round" stroke-width="2.286" d="M18.036 2.4a2.286 2.286 0 0 0-4.068 0L1.397 27.543a2.281 2.281 0 0 0 .094 2.224 2.287 2.287 0 0 0 1.941 1.09h25.143a2.28 2.28 0 0 0 1.941-1.09 2.292 2.292 0 0 0 .093-2.224L18.038 2.4z"/>
    </symbol>
<!-- стрілка ліво та право -->
     <symbol id="left-black" viewBox="0 0 37 32">
      <path fill="#fff" style="fill:var(--color1, #fff)" d="M2.667 21.333v-16A5.333 5.333 0 0 1 8 0h21.333a5.333 5.333 0 0 1 5.333 5.333v16a5.333 5.333 0 0 1-5.333 5.333H8a5.333 5.333 0 0 1-5.333-5.333z"/>
      <path fill="#2c2c2c" style="fill:var(--color2, #2c2c2c)" d="m11.634 13.937 9.288 8.85a.832.832 0 0 0 1.15 0l.01-.01a.78.78 0 0 0 .238-.555.763.763 0 0 0-.238-.555l-8.747-8.333 8.747-8.33a.78.78 0 0 0 .238-.555.763.763 0 0 0-.238-.555l-.01-.01a.832.832 0 0 0-1.15 0l-9.288 8.85a.82.82 0 0 0-.258.603.837.837 0 0 0 .258.603z"/>
    </symbol>
    <symbol id="righr-black" viewBox="0 0 37 32">
      <path fill="#fff" style="fill:var(--color1, #fff)" d="M34.667 5.333v16a5.333 5.333 0 0 1-5.333 5.333H8.001a5.333 5.333 0 0 1-5.333-5.333v-16A5.333 5.333 0 0 1 8.001 0h21.333a5.333 5.333 0 0 1 5.333 5.333z"/>
      <path fill="#2c2c2c" style="fill:var(--color2, #2c2c2c)" d="m25.7 12.73-9.288-8.85a.832.832 0 0 0-1.15 0l-.01.01a.78.78 0 0 0-.238.555.763.763 0 0 0 .238.555l8.747 8.333-8.747 8.33a.78.78 0 0 0-.238.555.763.763 0 0 0 .238.555l.01.01a.832.832 0 0 0 1.15 0l9.288-8.85a.82.82 0 0 0 .258-.603.837.837 0 0 0-.258-.603z"/>
    </symbol>
    <symbol id="left-green" viewBox="0 0 37 32">
      <path fill="#fff" style="fill:var(--color1, #fff)" d="M2.667 21.333v-16A5.333 5.333 0 0 1 8 0h21.333a5.333 5.333 0 0 1 5.333 5.333v16a5.333 5.333 0 0 1-5.333 5.333H8a5.333 5.333 0 0 1-5.333-5.333z"/>
      <path fill="#7eb101" style="fill:var(--color2, #7eb101)" d="m11.634 13.937 9.288 8.85a.832.832 0 0 0 1.15 0l.01-.01a.78.78 0 0 0 .238-.555.763.763 0 0 0-.238-.555l-8.747-8.333 8.747-8.33a.78.78 0 0 0 .238-.555.763.763 0 0 0-.238-.555l-.01-.01a.832.832 0 0 0-1.15 0l-9.288 8.85a.82.82 0 0 0-.258.603.837.837 0 0 0 .258.603z"/>
    </symbol>
    <symbol id="right-green" viewBox="0 0 37 32">
      <path fill="#fff" style="fill:var(--color1, #fff)" d="M34.667 5.333v16a5.333 5.333 0 0 1-5.333 5.333H8.001a5.333 5.333 0 0 1-5.333-5.333v-16A5.333 5.333 0 0 1 8.001 0h21.333a5.333 5.333 0 0 1 5.333 5.333z"/>
      <path fill="#7eb101" style="fill:var(--color2, #7eb101)" d="m25.7 12.73-9.288-8.85a.832.832 0 0 0-1.15 0l-.01.01a.78.78 0 0 0-.238.555.763.763 0 0 0 .238.555l8.747 8.333-8.747 8.33a.78.78 0 0 0-.238.555.763.763 0 0 0 .238.555l.01.01a.832.832 0 0 0 1.15 0l9.288-8.85a.82.82 0 0 0 .258-.603.837.837 0 0 0-.258-.603z"/>
    </symbol>
<!-- ellipse hero-->
        <symbol id="ellips-xl" viewBox="0 0 32 32">
      <path fill="#fefefe" style="fill:var(--color1, #fefefe);stroke:var(--color2, #ffe550)" stroke="#ffe550" stroke-width="1.435" d="M31.283 16c0 8.44-6.842 15.283-15.283 15.283S.717 24.441.717 16C.717 7.56 7.559.717 16 .717S31.283 7.559 31.283 16z"/>
    </symbol>
       <symbol id="ellipse-l" viewBox="0 0 32 32">
      <path fill="#fff" style="fill:var(--color1, #fff);stroke:var(--color2, #ffe550)" stroke="#ffe550" stroke-width="1.4" d="M31.3 16c0 8.45-6.85 15.3-15.3 15.3S.7 24.45.7 16C.7 7.55 7.55.7 16 .7S31.3 7.55 31.3 16z"/>
    </symbol>
    <!-- ellipse favorites -->
     <symbol id="mobile" viewBox="0 0 32 32">
      <path fill="#fefefe" style="fill:var(--color1, #fefefe);stroke:var(--color2, #ffe550)" stroke="#ffe550" stroke-width="1.248" d="M15.848.624h.078c8.408 0 15.224 6.816 15.224 15.224v.305c0 8.408-6.816 15.224-15.224 15.224h-.078C7.44 31.377.624 24.561.624 16.153v-.305C.624 7.44 7.44.624 15.848.624z"/>
    </symbol>
    <symbol id="tablet-green" viewBox="0 0 32 32">
      <path fill="#fefefe" style="fill:var(--color1, #fefefe);stroke:var(--color3, #bbf330)" stroke="#bbf330" stroke-width="1.325" d="M15.867.663h.078c8.397 0 15.204 6.807 15.204 15.204v.267c0 8.397-6.807 15.204-15.204 15.204h-.078C7.47 31.338.663 24.531.663 16.134v-.267C.663 7.47 7.47.663 15.867.663z"/>
    </symbol>
    <symbol id="tablet" viewBox="0 0 32 32">
      <path fill="#fefefe" style="fill:var(--color1, #fefefe);stroke:var(--color2, #ffe550)" stroke="#ffe550" stroke-width="1.325" d="M15.867.663h.078c8.397 0 15.204 6.807 15.204 15.204v.267c0 8.397-6.807 15.204-15.204 15.204h-.078C7.47 31.338.663 24.531.663 16.134v-.267C.663 7.47 7.47.663 15.867.663z"/>
    </symbol>
    <symbol id="desctop-green" viewBox="0 0 32 32">
      <path fill="#fefefe" style="fill:var(--color1, #fefefe);stroke:var(--color3, #bbf330)" stroke="#bbf330" stroke-width="1.29" d="M15.919.645c8.436 0 15.275 6.839 15.275 15.275v.161c0 8.436-6.839 15.275-15.275 15.275S.644 24.517.644 16.081v-.161C.644 7.484 7.483.645 15.919.645z"/>
    </symbol>
    <symbol id="desctop" viewBox="0 0 32 32">
      <path fill="#fefefe" style="fill:var(--color1, #fefefe);stroke:var(--color2, #ffe550)" stroke="#ffe550" stroke-width="1.29" d="M15.919.645c8.436 0 15.275 6.839 15.275 15.275v.161c0 8.436-6.839 15.275-15.275 15.275S.644 24.517.644 16.081v-.161C.644 7.484 7.483.645 15.919.645z"/>
    </symbol>
    <symbol id="mobile-green" viewBox="0 0 32 32">
      <path fill="#fefefe" style="fill:var(--color1, #fefefe);stroke:var(--color3, #bbf330)" stroke="#bbf330" stroke-width="1.248" d="M15.848.624h.078c8.408 0 15.224 6.816 15.224 15.224v.305c0 8.408-6.816 15.224-15.224 15.224h-.078C7.44 31.377.624 24.561.624 16.153v-.305C.624 7.44 7.44.624 15.848.624z"/>
    </symbol>
    <!-- apple+ellips+blur -->
     <symbol id="mobile-blur" viewBox="0 0 69 32">
      <path d="M63.2 15.863c0 5.436-12.764 9.842-28.509 9.842S6.182 21.298 6.182 15.863c0-5.436 12.764-9.842 28.509-9.842S63.2 10.428 63.2 15.863z"/>
    </symbol>
    <symbol id="mobile-ellipse" viewBox="0 0 32 32">
      <path stroke-width=".342" d="M31.715 15.945c0 8.711-7.061 15.772-15.772 15.772S.171 24.656.171 15.945 7.232.173 15.943.173s15.772 7.061 15.772 15.772z"/>
    </symbol>
    <symbol id="mobile-bg" viewBox="0 0 32 32">
      <path d="M31.973 16.002c0 8.822-7.151 15.973-15.973 15.973S.027 24.824.027 16.002C.027 7.18 7.178.029 16 .029S31.973 7.18 31.973 16.002z"/>
    </symbol>
<!-- ellips  яблуко -->
    <symbol id="ellips" viewBox="0 0 32 32">
      <path d="M63.019 16.028c0 5.424-12.736 9.821-28.447 9.821S6.125 21.452 6.125 16.028c0-5.424 12.736-9.821 28.447-9.821s28.447 4.397 28.447 9.821z"/>
    </symbol>
    <symbol id="bg" viewBox="0 0 32 32">
      <path d="M31.943 16c0 8.805-7.138 15.943-15.943 15.943S.057 24.805.057 16 7.195.057 16 .057 31.943 7.195 31.943 16z"/>
    </symbol>
    <symbol id="blur" viewBox="0 0 69 32">
      <path d="M63.019 16.028c0 5.424-12.736 9.821-28.447 9.821S6.125 21.452 6.125 16.028c0-5.424 12.736-9.821 28.447-9.821s28.447 4.397 28.447 9.821z"/>
    </symbol>
  </defs>
</svg>